<?xml version="1.0" encoding="utf-8"?>
<!-- Designed by Vexels.com - 2016 All Rights Reserved - https://vexels.com/terms-and-conditions/  -->

<svg version="1.0" id="Capa_1" xmlns="http://www.w3.org/2000/svg" xmlns:xlink="http://www.w3.org/1999/xlink" x="0px" y="0px"
	 width="1200px" height="1199.999px" viewBox="0 0 1200 1199.999" enable-background="new 0 0 1200 1199.999" xml:space="preserve">
<g>
	<g>
		<path fill-rule="evenodd" clip-rule="evenodd" fill="#5B5B5E" d="M1023.12,767.263c0,17.862-14.525,32.342-32.449,32.342h-778.9
			c-17.92,0-32.445-14.48-32.445-32.342V306.908c0-17.866,14.525-32.35,32.445-32.35h778.9c17.924,0,32.449,14.484,32.449,32.35
			V767.263z"/>
		<path fill-rule="evenodd" clip-rule="evenodd" fill="#5B5B5E" d="M1016.806,767.642c0,17.656-14.311,31.962-31.966,31.962H217.614
			c-17.656,0-31.975-14.307-31.975-31.962V312.719c0-17.66,14.319-31.967,31.975-31.967H984.84
			c17.655,0,31.966,14.307,31.966,31.967V767.642z"/>
		<g>
			<defs>
				<path id="SVGID_1_" d="M1016.806,767.642c0,17.656-14.311,31.962-31.966,31.962H217.614c-17.656,0-31.975-14.307-31.975-31.962
					V312.719c0-17.66,14.319-31.967,31.975-31.967H984.84c17.655,0,31.966,14.307,31.966,31.967V767.642z"/>
			</defs>
			<clipPath id="SVGID_2_">
				<use xlink:href="#SVGID_1_"  overflow="visible"/>
			</clipPath>
			<g clip-path="url(#SVGID_2_)">
				<path fill-rule="evenodd" clip-rule="evenodd" fill="#707172" d="M607.05,622.163c277.725,0,504.24-96.064,504.24-213.85
					S884.775,194.446,607.05,194.446c-277.741,0-504.252,96.081-504.252,213.866S329.309,622.163,607.05,622.163z"/>
			</g>
		</g>
		<polygon fill-rule="evenodd" clip-rule="evenodd" fill="#BBBDBC" points="186.374,771.837 56.657,903.001 1140.877,901.818 
			1016.059,771.045 		"/>
		<path fill-rule="evenodd" clip-rule="evenodd" fill="#656568" d="M1143.426,901.793c0,13.057-12.331,23.648-27.545,23.648H84.119
			c-15.21,0-27.545-10.591-27.545-23.648H1143.426z"/>
		<polygon opacity="0.15" fill-rule="evenodd" clip-rule="evenodd" fill="#120C13" points="283.258,794.672 260.831,794.672 
			270.981,780.39 292.674,780.39 		"/>
		<polygon opacity="0.15" fill-rule="evenodd" clip-rule="evenodd" fill="#120C13" points="300.572,812.695 248.013,812.695 
			258.171,798.417 309.068,798.417 		"/>
		<polygon opacity="0.15" fill-rule="evenodd" clip-rule="evenodd" fill="#120C13" points="290.055,832.408 235.212,832.408 
			245.329,818.13 298.51,818.13 		"/>
		<polygon opacity="0.15" fill-rule="evenodd" clip-rule="evenodd" fill="#120C13" points="310.173,794.672 287.742,794.672 
			297.017,780.39 318.706,780.39 		"/>
		<polygon opacity="0.15" fill-rule="evenodd" clip-rule="evenodd" fill="#120C13" points="337.079,794.672 314.652,794.672 
			323.04,780.39 344.729,780.39 		"/>
		<polygon opacity="0.15" fill-rule="evenodd" clip-rule="evenodd" fill="#120C13" points="363.993,794.672 341.566,794.672 
			349.072,780.39 370.765,780.39 		"/>
		<polygon opacity="0.15" fill-rule="evenodd" clip-rule="evenodd" fill="#120C13" points="390.907,794.672 368.48,794.672 
			375.091,780.39 396.792,780.39 		"/>
		<polygon opacity="0.15" fill-rule="evenodd" clip-rule="evenodd" fill="#120C13" points="417.817,794.672 395.386,794.672 
			401.135,780.39 422.82,780.39 		"/>
		<polygon opacity="0.15" fill-rule="evenodd" clip-rule="evenodd" fill="#120C13" points="444.723,794.672 422.301,794.672 
			427.155,780.39 448.848,780.39 		"/>
		<polygon opacity="0.15" fill-rule="evenodd" clip-rule="evenodd" fill="#120C13" points="471.634,794.672 449.207,794.672 
			453.19,780.39 474.871,780.39 		"/>
		<polygon opacity="0.15" fill-rule="evenodd" clip-rule="evenodd" fill="#120C13" points="498.552,794.672 476.125,794.672 
			479.21,780.39 500.903,780.39 		"/>
		<polygon opacity="0.15" fill-rule="evenodd" clip-rule="evenodd" fill="#120C13" points="525.462,794.672 503.031,794.672 
			505.241,780.39 526.934,780.39 		"/>
		<polygon opacity="0.15" fill-rule="evenodd" clip-rule="evenodd" fill="#120C13" points="552.38,794.672 529.953,794.672 
			531.265,780.39 552.958,780.39 		"/>
		<polygon opacity="0.15" fill-rule="evenodd" clip-rule="evenodd" fill="#120C13" points="579.282,794.672 556.867,794.672 
			557.301,780.39 578.985,780.39 		"/>
		<polygon opacity="0.15" fill-rule="evenodd" clip-rule="evenodd" fill="#120C13" points="606.197,794.672 583.769,794.672 
			583.328,780.39 605.021,780.39 		"/>
		<polygon opacity="0.15" fill-rule="evenodd" clip-rule="evenodd" fill="#120C13" points="633.111,794.672 610.679,794.672 
			609.352,780.39 631.045,780.39 		"/>
		<polygon opacity="0.15" fill-rule="evenodd" clip-rule="evenodd" fill="#120C13" points="660.017,794.672 637.598,794.672 
			635.387,780.39 657.076,780.39 		"/>
		<polygon opacity="0.15" fill-rule="evenodd" clip-rule="evenodd" fill="#120C13" points="686.935,794.672 664.504,794.672 
			661.415,780.39 683.108,780.39 		"/>
		<polygon opacity="0.15" fill-rule="evenodd" clip-rule="evenodd" fill="#120C13" points="713.845,794.672 691.418,794.672 
			687.438,780.39 709.131,780.39 		"/>
		<polygon opacity="0.15" fill-rule="evenodd" clip-rule="evenodd" fill="#120C13" points="740.76,794.672 718.332,794.672 
			713.47,780.39 735.167,780.39 		"/>
		<polygon opacity="0.15" fill-rule="evenodd" clip-rule="evenodd" fill="#120C13" points="767.666,794.672 745.23,794.672 
			739.497,780.39 761.191,780.39 		"/>
		<polygon opacity="0.15" fill-rule="evenodd" clip-rule="evenodd" fill="#120C13" points="794.58,794.672 772.153,794.672 
			765.525,780.39 787.218,780.39 		"/>
		<polygon opacity="0.15" fill-rule="evenodd" clip-rule="evenodd" fill="#120C13" points="821.49,794.672 799.071,794.672 
			791.557,780.39 813.246,780.39 		"/>
		<polygon opacity="0.15" fill-rule="evenodd" clip-rule="evenodd" fill="#120C13" points="848.404,794.672 825.977,794.672 
			817.584,780.39 839.269,780.39 		"/>
		<polygon opacity="0.15" fill-rule="evenodd" clip-rule="evenodd" fill="#120C13" points="875.318,794.672 852.887,794.672 
			843.612,780.39 865.305,780.39 		"/>
		<polygon opacity="0.15" fill-rule="evenodd" clip-rule="evenodd" fill="#120C13" points="902.225,794.672 879.801,794.672 
			869.643,780.39 891.324,780.39 		"/>
		<polygon opacity="0.15" fill-rule="evenodd" clip-rule="evenodd" fill="#120C13" points="929.139,794.672 906.712,794.672 
			895.671,780.39 917.364,780.39 		"/>
		<polygon opacity="0.15" fill-rule="evenodd" clip-rule="evenodd" fill="#120C13" points="246.252,850.769 220.939,850.769 
			231.084,836.487 255.672,836.487 		"/>
		<polygon opacity="0.15" fill-rule="evenodd" clip-rule="evenodd" fill="#120C13" points="276.64,850.769 251.321,850.769 
			260.592,836.487 285.172,836.487 		"/>
		<polygon opacity="0.15" fill-rule="evenodd" clip-rule="evenodd" fill="#120C13" points="307.018,850.769 281.708,850.769 
			290.088,836.487 314.672,836.487 		"/>
		<polygon opacity="0.15" fill-rule="evenodd" clip-rule="evenodd" fill="#120C13" points="337.405,850.769 312.086,850.769 
			319.584,836.487 344.168,836.487 		"/>
		<polygon opacity="0.15" fill-rule="evenodd" clip-rule="evenodd" fill="#120C13" points="367.783,850.769 342.469,850.769 
			349.088,836.487 373.672,836.487 		"/>
		<polygon opacity="0.15" fill-rule="evenodd" clip-rule="evenodd" fill="#120C13" points="398.162,850.769 372.843,850.769 
			378.584,836.487 403.168,836.487 		"/>
		<polygon opacity="0.15" fill-rule="evenodd" clip-rule="evenodd" fill="#120C13" points="791.858,850.769 404.492,850.769 
			409.314,836.487 785.42,836.487 		"/>
		<polygon opacity="0.15" fill-rule="evenodd" clip-rule="evenodd" fill="#120C13" points="823.507,850.769 798.188,850.769 
			791.557,836.487 816.141,836.487 		"/>
		<polygon opacity="0.15" fill-rule="evenodd" clip-rule="evenodd" fill="#120C13" points="853.885,850.769 828.567,850.769 
			821.057,836.487 845.641,836.487 		"/>
		<polygon opacity="0.15" fill-rule="evenodd" clip-rule="evenodd" fill="#120C13" points="884.272,850.769 858.954,850.769 
			850.557,836.487 875.137,836.487 		"/>
		<polygon opacity="0.15" fill-rule="evenodd" clip-rule="evenodd" fill="#120C13" points="914.654,850.769 889.341,850.769 
			880.057,836.487 904.637,836.487 		"/>
		<polygon opacity="0.15" fill-rule="evenodd" clip-rule="evenodd" fill="#120C13" points="945.033,850.769 919.719,850.769 
			909.553,836.487 934.133,836.487 		"/>
		<polygon opacity="0.15" fill-rule="evenodd" clip-rule="evenodd" fill="#120C13" points="975.416,850.769 950.098,850.769 
			939.057,836.487 963.633,836.487 		"/>
		<polygon opacity="0.15" fill-rule="evenodd" clip-rule="evenodd" fill="#120C13" points="327.428,812.695 304.073,812.695 
			312.453,798.417 335.07,798.417 		"/>
		<polygon opacity="0.15" fill-rule="evenodd" clip-rule="evenodd" fill="#120C13" points="355.456,812.695 332.097,812.695 
			339.599,798.417 362.224,798.417 		"/>
		<polygon opacity="0.15" fill-rule="evenodd" clip-rule="evenodd" fill="#120C13" points="383.48,812.695 360.129,812.695 
			366.744,798.417 389.361,798.417 		"/>
		<polygon opacity="0.15" fill-rule="evenodd" clip-rule="evenodd" fill="#120C13" points="411.495,812.695 388.152,812.695 
			393.885,798.417 416.506,798.417 		"/>
		<polygon opacity="0.15" fill-rule="evenodd" clip-rule="evenodd" fill="#120C13" points="439.531,812.695 416.176,812.695 
			421.03,798.417 443.651,798.417 		"/>
		<polygon opacity="0.15" fill-rule="evenodd" clip-rule="evenodd" fill="#120C13" points="467.555,812.695 444.2,812.695 
			448.175,798.417 470.792,798.417 		"/>
		<polygon opacity="0.15" fill-rule="evenodd" clip-rule="evenodd" fill="#120C13" points="495.587,812.695 472.224,812.695 
			475.312,798.417 497.933,798.417 		"/>
		<polygon opacity="0.15" fill-rule="evenodd" clip-rule="evenodd" fill="#120C13" points="523.61,812.695 500.255,812.695 
			502.454,798.417 525.083,798.417 		"/>
		<polygon opacity="0.15" fill-rule="evenodd" clip-rule="evenodd" fill="#120C13" points="551.634,812.695 528.279,812.695 
			529.603,798.417 552.224,798.417 		"/>
		<polygon opacity="0.15" fill-rule="evenodd" clip-rule="evenodd" fill="#120C13" points="579.658,812.695 556.307,812.695 
			556.744,798.417 579.365,798.417 		"/>
		<polygon opacity="0.15" fill-rule="evenodd" clip-rule="evenodd" fill="#120C13" points="607.685,812.695 584.331,812.695 
			583.885,798.417 606.502,798.417 		"/>
		<polygon opacity="0.15" fill-rule="evenodd" clip-rule="evenodd" fill="#120C13" points="635.713,812.695 612.362,812.695 
			611.034,798.417 633.655,798.417 		"/>
		<polygon opacity="0.15" fill-rule="evenodd" clip-rule="evenodd" fill="#120C13" points="663.737,812.695 640.386,812.695 
			638.175,798.417 660.792,798.417 		"/>
		<polygon opacity="0.15" fill-rule="evenodd" clip-rule="evenodd" fill="#120C13" points="691.765,812.695 668.414,812.695 
			665.316,798.417 687.946,798.417 		"/>
		<polygon opacity="0.15" fill-rule="evenodd" clip-rule="evenodd" fill="#120C13" points="719.788,812.695 696.437,812.695 
			692.466,798.417 715.074,798.417 		"/>
		<polygon opacity="0.15" fill-rule="evenodd" clip-rule="evenodd" fill="#120C13" points="747.82,812.695 724.469,812.695 
			719.607,798.417 742.223,798.417 		"/>
		<polygon opacity="0.15" fill-rule="evenodd" clip-rule="evenodd" fill="#120C13" points="775.844,812.695 752.493,812.695 
			746.748,798.417 769.365,798.417 		"/>
		<polygon opacity="0.15" fill-rule="evenodd" clip-rule="evenodd" fill="#120C13" points="803.876,812.695 780.521,812.695 
			773.885,798.417 796.51,798.417 		"/>
		<polygon opacity="0.15" fill-rule="evenodd" clip-rule="evenodd" fill="#120C13" points="831.899,812.695 808.544,812.695 
			801.03,798.417 823.651,798.417 		"/>
		<polygon opacity="0.15" fill-rule="evenodd" clip-rule="evenodd" fill="#120C13" points="859.927,812.695 836.568,812.695 
			828.175,798.417 850.796,798.417 		"/>
		<polygon opacity="0.15" fill-rule="evenodd" clip-rule="evenodd" fill="#120C13" points="887.955,812.695 864.596,812.695 
			855.316,798.417 877.941,798.417 		"/>
		<polygon opacity="0.15" fill-rule="evenodd" clip-rule="evenodd" fill="#120C13" points="915.974,812.695 892.632,812.695 
			882.461,798.417 905.082,798.417 		"/>
		<polygon opacity="0.15" fill-rule="evenodd" clip-rule="evenodd" fill="#120C13" points="959.431,831.39 935.11,831.39 
			909.602,798.417 932.219,798.417 		"/>
		<polygon opacity="0.15" fill-rule="evenodd" clip-rule="evenodd" fill="#120C13" points="316.858,832.408 292.484,832.408 
			300.877,818.13 324.513,818.13 		"/>
		<polygon opacity="0.15" fill-rule="evenodd" clip-rule="evenodd" fill="#120C13" points="346.103,832.408 321.729,832.408 
			329.235,818.13 352.874,818.13 		"/>
		<polygon opacity="0.15" fill-rule="evenodd" clip-rule="evenodd" fill="#120C13" points="375.347,832.408 350.977,832.408 
			357.601,818.13 381.232,818.13 		"/>
		<polygon opacity="0.15" fill-rule="evenodd" clip-rule="evenodd" fill="#120C13" points="404.587,832.408 380.217,832.408 
			385.958,818.13 409.594,818.13 		"/>
		<polygon opacity="0.15" fill-rule="evenodd" clip-rule="evenodd" fill="#120C13" points="433.84,832.408 409.466,832.408 
			414.324,818.13 437.96,818.13 		"/>
		<polygon opacity="0.15" fill-rule="evenodd" clip-rule="evenodd" fill="#120C13" points="463.096,832.408 438.723,832.408 
			442.686,818.13 466.322,818.13 		"/>
		<polygon opacity="0.15" fill-rule="evenodd" clip-rule="evenodd" fill="#120C13" points="492.337,832.408 467.963,832.408 
			471.052,818.13 494.683,818.13 		"/>
		<polygon opacity="0.15" fill-rule="evenodd" clip-rule="evenodd" fill="#120C13" points="521.581,832.408 497.208,832.408 
			499.41,818.13 523.054,818.13 		"/>
		<polygon opacity="0.15" fill-rule="evenodd" clip-rule="evenodd" fill="#120C13" points="550.826,832.408 526.452,832.408 
			527.776,818.13 551.415,818.13 		"/>
		<polygon opacity="0.15" fill-rule="evenodd" clip-rule="evenodd" fill="#120C13" points="580.074,832.408 555.701,832.408 
			556.142,818.13 579.773,818.13 		"/>
		<polygon opacity="0.15" fill-rule="evenodd" clip-rule="evenodd" fill="#120C13" points="609.315,832.408 584.941,832.408 
			584.499,818.13 608.143,818.13 		"/>
		<polygon opacity="0.15" fill-rule="evenodd" clip-rule="evenodd" fill="#120C13" points="638.563,832.408 614.189,832.408 
			612.861,818.13 636.505,818.13 		"/>
		<polygon opacity="0.15" fill-rule="evenodd" clip-rule="evenodd" fill="#120C13" points="667.807,832.408 643.438,832.408 
			641.223,818.13 664.863,818.13 		"/>
		<polygon opacity="0.15" fill-rule="evenodd" clip-rule="evenodd" fill="#120C13" points="697.06,832.408 672.686,832.408 
			669.589,818.13 693.225,818.13 		"/>
		<polygon opacity="0.15" fill-rule="evenodd" clip-rule="evenodd" fill="#120C13" points="726.304,832.408 701.93,832.408 
			697.951,818.13 721.595,818.13 		"/>
		<polygon opacity="0.15" fill-rule="evenodd" clip-rule="evenodd" fill="#120C13" points="755.549,832.408 731.175,832.408 
			726.317,818.13 749.952,818.13 		"/>
		<polygon opacity="0.15" fill-rule="evenodd" clip-rule="evenodd" fill="#120C13" points="784.797,832.408 760.415,832.408 
			754.679,818.13 778.314,818.13 		"/>
		<polygon opacity="0.15" fill-rule="evenodd" clip-rule="evenodd" fill="#120C13" points="814.046,832.408 789.668,832.408 
			783.04,818.13 806.68,818.13 		"/>
		<polygon opacity="0.15" fill-rule="evenodd" clip-rule="evenodd" fill="#120C13" points="843.286,832.408 818.912,832.408 
			811.406,818.13 835.038,818.13 		"/>
		<polygon opacity="0.15" fill-rule="evenodd" clip-rule="evenodd" fill="#120C13" points="872.535,832.408 848.157,832.408 
			839.768,818.13 863.404,818.13 		"/>
		<polygon opacity="0.15" fill-rule="evenodd" clip-rule="evenodd" fill="#120C13" points="901.779,832.408 877.405,832.408 
			868.134,818.13 891.761,818.13 		"/>
		<polygon opacity="0.15" fill-rule="evenodd" clip-rule="evenodd" fill="#120C13" points="931.028,832.408 906.654,832.408 
			896.488,818.13 920.127,818.13 		"/>
		<polygon fill-rule="evenodd" clip-rule="evenodd" fill="#716F71" points="283.258,793.608 260.831,793.608 270.981,779.339 
			292.674,779.339 		"/>
		<polygon fill-rule="evenodd" clip-rule="evenodd" fill="#716F71" points="300.572,811.631 248.013,811.631 258.171,797.353 
			309.068,797.353 		"/>
		<polygon fill-rule="evenodd" clip-rule="evenodd" fill="#716F71" points="290.055,831.36 235.212,831.36 245.329,817.079 
			298.51,817.079 		"/>
		<polygon fill-rule="evenodd" clip-rule="evenodd" fill="#716F71" points="310.173,793.608 287.742,793.608 297.017,779.339 
			318.706,779.339 		"/>
		<polygon fill-rule="evenodd" clip-rule="evenodd" fill="#716F71" points="337.079,793.608 314.652,793.608 323.04,779.339 
			344.729,779.339 		"/>
		<polygon fill-rule="evenodd" clip-rule="evenodd" fill="#716F71" points="363.993,793.608 341.566,793.608 349.072,779.339 
			370.765,779.339 		"/>
		<polygon fill-rule="evenodd" clip-rule="evenodd" fill="#716F71" points="390.907,793.608 368.48,793.608 375.091,779.339 
			396.792,779.339 		"/>
		<polygon fill-rule="evenodd" clip-rule="evenodd" fill="#716F71" points="417.817,793.608 395.386,793.608 401.135,779.339 
			422.82,779.339 		"/>
		<polygon fill-rule="evenodd" clip-rule="evenodd" fill="#716F71" points="444.723,793.608 422.301,793.608 427.155,779.339 
			448.848,779.339 		"/>
		<polygon fill-rule="evenodd" clip-rule="evenodd" fill="#716F71" points="471.634,793.608 449.207,793.608 453.19,779.339 
			474.871,779.339 		"/>
		<polygon fill-rule="evenodd" clip-rule="evenodd" fill="#716F71" points="498.552,793.608 476.125,793.608 479.21,779.339 
			500.903,779.339 		"/>
		<polygon fill-rule="evenodd" clip-rule="evenodd" fill="#716F71" points="525.462,793.608 503.031,793.608 505.241,779.339 
			526.934,779.339 		"/>
		<polygon fill-rule="evenodd" clip-rule="evenodd" fill="#716F71" points="552.38,793.608 529.953,793.608 531.265,779.339 
			552.958,779.339 		"/>
		<polygon fill-rule="evenodd" clip-rule="evenodd" fill="#716F71" points="579.282,793.608 556.867,793.608 557.301,779.339 
			578.985,779.339 		"/>
		<polygon fill-rule="evenodd" clip-rule="evenodd" fill="#716F71" points="606.197,793.608 583.769,793.608 583.328,779.339 
			605.021,779.339 		"/>
		<polygon fill-rule="evenodd" clip-rule="evenodd" fill="#716F71" points="633.111,793.608 610.679,793.608 609.352,779.339 
			631.045,779.339 		"/>
		<polygon fill-rule="evenodd" clip-rule="evenodd" fill="#716F71" points="660.017,793.608 637.598,793.608 635.387,779.339 
			657.076,779.339 		"/>
		<polygon fill-rule="evenodd" clip-rule="evenodd" fill="#716F71" points="686.935,793.608 664.504,793.608 661.415,779.339 
			683.108,779.339 		"/>
		<polygon fill-rule="evenodd" clip-rule="evenodd" fill="#716F71" points="713.845,793.608 691.418,793.608 687.438,779.339 
			709.131,779.339 		"/>
		<polygon fill-rule="evenodd" clip-rule="evenodd" fill="#716F71" points="740.76,793.608 718.332,793.608 713.47,779.339 
			735.167,779.339 		"/>
		<polygon fill-rule="evenodd" clip-rule="evenodd" fill="#716F71" points="767.666,793.608 745.23,793.608 739.497,779.339 
			761.191,779.339 		"/>
		<polygon fill-rule="evenodd" clip-rule="evenodd" fill="#716F71" points="794.58,793.608 772.153,793.608 765.525,779.339 
			787.218,779.339 		"/>
		<polygon fill-rule="evenodd" clip-rule="evenodd" fill="#716F71" points="821.49,793.608 799.071,793.608 791.557,779.339 
			813.246,779.339 		"/>
		<polygon fill-rule="evenodd" clip-rule="evenodd" fill="#716F71" points="848.404,793.608 825.977,793.608 817.584,779.339 
			839.269,779.339 		"/>
		<polygon fill-rule="evenodd" clip-rule="evenodd" fill="#716F71" points="875.318,793.608 852.887,793.608 843.612,779.339 
			865.305,779.339 		"/>
		<polygon fill-rule="evenodd" clip-rule="evenodd" fill="#716F71" points="902.225,793.608 879.801,793.608 869.643,779.339 
			891.324,779.339 		"/>
		<polygon fill-rule="evenodd" clip-rule="evenodd" fill="#716F71" points="929.139,793.608 906.712,793.608 895.671,779.339 
			917.364,779.339 		"/>
		<polygon fill-rule="evenodd" clip-rule="evenodd" fill="#716F71" points="246.252,849.709 220.939,849.709 231.084,835.427 
			255.672,835.427 		"/>
		<polygon fill-rule="evenodd" clip-rule="evenodd" fill="#716F71" points="276.64,849.709 251.321,849.709 260.592,835.427 
			285.172,835.427 		"/>
		<polygon fill-rule="evenodd" clip-rule="evenodd" fill="#716F71" points="307.018,849.709 281.708,849.709 290.088,835.427 
			314.672,835.427 		"/>
		<polygon fill-rule="evenodd" clip-rule="evenodd" fill="#716F71" points="337.405,849.709 312.086,849.709 319.584,835.427 
			344.168,835.427 		"/>
		<polygon fill-rule="evenodd" clip-rule="evenodd" fill="#716F71" points="367.783,849.709 342.469,849.709 349.088,835.427 
			373.672,835.427 		"/>
		<polygon fill-rule="evenodd" clip-rule="evenodd" fill="#716F71" points="398.162,849.709 372.843,849.709 378.584,835.427 
			403.168,835.427 		"/>
		<polygon fill-rule="evenodd" clip-rule="evenodd" fill="#716F71" points="791.858,849.709 404.492,849.709 409.314,835.427 
			785.42,835.427 		"/>
		<polygon fill-rule="evenodd" clip-rule="evenodd" fill="#716F71" points="823.507,849.709 798.188,849.709 791.557,835.427 
			816.141,835.427 		"/>
		<polygon fill-rule="evenodd" clip-rule="evenodd" fill="#716F71" points="853.885,849.709 828.567,849.709 821.057,835.427 
			845.641,835.427 		"/>
		<polygon fill-rule="evenodd" clip-rule="evenodd" fill="#716F71" points="884.272,849.709 858.954,849.709 850.557,835.427 
			875.137,835.427 		"/>
		<polygon fill-rule="evenodd" clip-rule="evenodd" fill="#716F71" points="914.654,849.709 889.341,849.709 880.057,835.427 
			904.637,835.427 		"/>
		<polygon fill-rule="evenodd" clip-rule="evenodd" fill="#716F71" points="945.033,849.709 919.719,849.709 909.553,835.427 
			934.133,835.427 		"/>
		<polygon fill-rule="evenodd" clip-rule="evenodd" fill="#716F71" points="975.416,849.709 950.098,849.709 939.057,835.427 
			963.633,835.427 		"/>
		<polygon fill-rule="evenodd" clip-rule="evenodd" fill="#716F71" points="327.428,811.631 304.073,811.631 312.453,797.353 
			335.07,797.353 		"/>
		<polygon fill-rule="evenodd" clip-rule="evenodd" fill="#716F71" points="355.456,811.631 332.097,811.631 339.599,797.353 
			362.224,797.353 		"/>
		<polygon fill-rule="evenodd" clip-rule="evenodd" fill="#716F71" points="383.48,811.631 360.129,811.631 366.744,797.353 
			389.361,797.353 		"/>
		<polygon fill-rule="evenodd" clip-rule="evenodd" fill="#716F71" points="411.495,811.631 388.152,811.631 393.885,797.353 
			416.506,797.353 		"/>
		<polygon fill-rule="evenodd" clip-rule="evenodd" fill="#716F71" points="439.531,811.631 416.176,811.631 421.03,797.353 
			443.651,797.353 		"/>
		<polygon fill-rule="evenodd" clip-rule="evenodd" fill="#716F71" points="467.555,811.631 444.2,811.631 448.175,797.353 
			470.792,797.353 		"/>
		<polygon fill-rule="evenodd" clip-rule="evenodd" fill="#716F71" points="495.587,811.631 472.224,811.631 475.312,797.353 
			497.933,797.353 		"/>
		<polygon fill-rule="evenodd" clip-rule="evenodd" fill="#716F71" points="523.61,811.631 500.255,811.631 502.454,797.353 
			525.083,797.353 		"/>
		<polygon fill-rule="evenodd" clip-rule="evenodd" fill="#716F71" points="551.634,811.631 528.279,811.631 529.603,797.353 
			552.224,797.353 		"/>
		<polygon fill-rule="evenodd" clip-rule="evenodd" fill="#716F71" points="579.658,811.631 556.307,811.631 556.744,797.353 
			579.365,797.353 		"/>
		<polygon fill-rule="evenodd" clip-rule="evenodd" fill="#716F71" points="607.685,811.631 584.331,811.631 583.885,797.353 
			606.502,797.353 		"/>
		<polygon fill-rule="evenodd" clip-rule="evenodd" fill="#716F71" points="635.713,811.631 612.362,811.631 611.034,797.353 
			633.655,797.353 		"/>
		<polygon fill-rule="evenodd" clip-rule="evenodd" fill="#716F71" points="663.737,811.631 640.386,811.631 638.175,797.353 
			660.792,797.353 		"/>
		<polygon fill-rule="evenodd" clip-rule="evenodd" fill="#716F71" points="691.765,811.631 668.414,811.631 665.316,797.353 
			687.946,797.353 		"/>
		<polygon fill-rule="evenodd" clip-rule="evenodd" fill="#716F71" points="719.788,811.631 696.437,811.631 692.466,797.353 
			715.074,797.353 		"/>
		<polygon fill-rule="evenodd" clip-rule="evenodd" fill="#716F71" points="747.82,811.631 724.469,811.631 719.607,797.353 
			742.223,797.353 		"/>
		<polygon fill-rule="evenodd" clip-rule="evenodd" fill="#716F71" points="775.844,811.631 752.493,811.631 746.748,797.353 
			769.365,797.353 		"/>
		<polygon fill-rule="evenodd" clip-rule="evenodd" fill="#716F71" points="803.876,811.631 780.521,811.631 773.885,797.353 
			796.51,797.353 		"/>
		<polygon fill-rule="evenodd" clip-rule="evenodd" fill="#716F71" points="831.899,811.631 808.544,811.631 801.03,797.353 
			823.651,797.353 		"/>
		<polygon fill-rule="evenodd" clip-rule="evenodd" fill="#716F71" points="859.927,811.631 836.568,811.631 828.175,797.353 
			850.796,797.353 		"/>
		<polygon fill-rule="evenodd" clip-rule="evenodd" fill="#716F71" points="887.955,811.631 864.596,811.631 855.316,797.353 
			877.941,797.353 		"/>
		<polygon fill-rule="evenodd" clip-rule="evenodd" fill="#716F71" points="915.974,811.631 892.632,811.631 882.461,797.353 
			905.082,797.353 		"/>
		<polygon fill-rule="evenodd" clip-rule="evenodd" fill="#716F71" points="959.431,830.334 935.11,830.334 909.602,797.353 
			932.219,797.353 		"/>
		<polygon fill-rule="evenodd" clip-rule="evenodd" fill="#716F71" points="316.858,831.36 292.484,831.36 300.877,817.079 
			324.513,817.079 		"/>
		<polygon fill-rule="evenodd" clip-rule="evenodd" fill="#716F71" points="346.103,831.36 321.729,831.36 329.235,817.079 
			352.874,817.079 		"/>
		<polygon fill-rule="evenodd" clip-rule="evenodd" fill="#716F71" points="375.347,831.36 350.977,831.36 357.601,817.079 
			381.232,817.079 		"/>
		<polygon fill-rule="evenodd" clip-rule="evenodd" fill="#716F71" points="404.587,831.36 380.217,831.36 385.958,817.079 
			409.594,817.079 		"/>
		<polygon fill-rule="evenodd" clip-rule="evenodd" fill="#716F71" points="433.84,831.36 409.466,831.36 414.324,817.079 
			437.96,817.079 		"/>
		<polygon fill-rule="evenodd" clip-rule="evenodd" fill="#716F71" points="463.096,831.36 438.723,831.36 442.686,817.079 
			466.322,817.079 		"/>
		<polygon fill-rule="evenodd" clip-rule="evenodd" fill="#716F71" points="492.337,831.36 467.963,831.36 471.052,817.079 
			494.683,817.079 		"/>
		<polygon fill-rule="evenodd" clip-rule="evenodd" fill="#716F71" points="521.581,831.36 497.208,831.36 499.41,817.079 
			523.054,817.079 		"/>
		<polygon fill-rule="evenodd" clip-rule="evenodd" fill="#716F71" points="550.826,831.36 526.452,831.36 527.776,817.079 
			551.415,817.079 		"/>
		<polygon fill-rule="evenodd" clip-rule="evenodd" fill="#716F71" points="580.074,831.36 555.701,831.36 556.142,817.079 
			579.773,817.079 		"/>
		<polygon fill-rule="evenodd" clip-rule="evenodd" fill="#716F71" points="609.315,831.36 584.941,831.36 584.499,817.079 
			608.143,817.079 		"/>
		<polygon fill-rule="evenodd" clip-rule="evenodd" fill="#716F71" points="638.563,831.36 614.189,831.36 612.861,817.079 
			636.505,817.079 		"/>
		<polygon fill-rule="evenodd" clip-rule="evenodd" fill="#716F71" points="667.807,831.36 643.438,831.36 641.223,817.079 
			664.863,817.079 		"/>
		<polygon fill-rule="evenodd" clip-rule="evenodd" fill="#716F71" points="697.06,831.36 672.686,831.36 669.589,817.079 
			693.225,817.079 		"/>
		<polygon fill-rule="evenodd" clip-rule="evenodd" fill="#716F71" points="726.304,831.36 701.93,831.36 697.951,817.079 
			721.595,817.079 		"/>
		<polygon fill-rule="evenodd" clip-rule="evenodd" fill="#716F71" points="755.549,831.36 731.175,831.36 726.317,817.079 
			749.952,817.079 		"/>
		<polygon fill-rule="evenodd" clip-rule="evenodd" fill="#716F71" points="784.797,831.36 760.415,831.36 754.679,817.079 
			778.314,817.079 		"/>
		<polygon fill-rule="evenodd" clip-rule="evenodd" fill="#716F71" points="814.046,831.36 789.668,831.36 783.04,817.079 
			806.68,817.079 		"/>
		<polygon fill-rule="evenodd" clip-rule="evenodd" fill="#716F71" points="843.286,831.36 818.912,831.36 811.406,817.079 
			835.038,817.079 		"/>
		<polygon fill-rule="evenodd" clip-rule="evenodd" fill="#716F71" points="872.535,831.36 848.157,831.36 839.768,817.079 
			863.404,817.079 		"/>
		<polygon fill-rule="evenodd" clip-rule="evenodd" fill="#716F71" points="901.779,831.36 877.405,831.36 868.134,817.079 
			891.761,817.079 		"/>
		<polygon fill-rule="evenodd" clip-rule="evenodd" fill="#716F71" points="931.028,831.36 906.654,831.36 896.488,817.079 
			920.127,817.079 		"/>
		<path fill-rule="evenodd" clip-rule="evenodd" fill="#2E2A30" d="M116.412,920.071c2.759,0,4.998-1.996,4.998-4.466
			c0-2.466-2.24-4.471-4.998-4.471c-2.759,0-5.007,2.004-5.007,4.471C111.405,918.075,113.653,920.071,116.412,920.071z"/>
		<path fill-rule="evenodd" clip-rule="evenodd" fill="#FBFBFB" d="M116.412,918.64c2.759,0,4.998-2.009,4.998-4.466
			c0-2.466-2.24-4.471-4.998-4.471c-2.759,0-5.007,2.004-5.007,4.471C111.405,916.631,113.653,918.64,116.412,918.64z"/>
		<path fill-rule="evenodd" clip-rule="evenodd" fill="#2E2A30" d="M152.168,920.43c2.755,0,5.007-2.005,5.007-4.475
			c0-2.454-2.252-4.463-5.007-4.463c-2.755,0-5.011,2.009-5.011,4.463C147.157,918.425,149.413,920.43,152.168,920.43z"/>
		<path fill-rule="evenodd" clip-rule="evenodd" fill="#189852" d="M152.168,918.999c2.755,0,5.007-2.013,5.007-4.471
			c0-2.458-2.252-4.466-5.007-4.466c-2.755,0-5.011,2.009-5.011,4.466C147.157,916.986,149.413,918.999,152.168,918.999z"/>
		<path fill-rule="evenodd" clip-rule="evenodd" fill="#2E2A30" d="M190.444,920.43c2.751,0,4.994-2.005,4.994-4.475
			c0-2.454-2.243-4.463-4.994-4.463c-2.767,0-5.015,2.009-5.015,4.463C185.43,918.425,187.677,920.43,190.444,920.43z"/>
		<path fill-rule="evenodd" clip-rule="evenodd" fill="#EFDD35" d="M190.444,918.999c2.751,0,4.994-2.013,4.994-4.471
			c0-2.458-2.243-4.466-4.994-4.466c-2.767,0-5.015,2.009-5.015,4.466C185.43,916.986,187.677,918.999,190.444,918.999z"/>
		<path fill-rule="evenodd" clip-rule="evenodd" fill="#959A9B" d="M504.808,855.71h175.611c9.939,0,14.08,24.283,17.185,32.548
			c1.646,4.405-3.843,8.574-8.521,8.574H495.723c-4.669,0-10.723-4.425-8.504-8.574C490.481,882.178,497.97,855.71,504.808,855.71z"
			/>
		<g>
			<path fill-rule="evenodd" clip-rule="evenodd" fill="#54C5D1" d="M967.906,311.379H235.88c-0.792,0-1.443,0.66-1.443,1.439
				v418.664c0,0.784,0.652,1.44,1.443,1.44h732.025c0.792,0,1.439-0.656,1.439-1.44V312.818
				C969.345,312.038,968.698,311.379,967.906,311.379z"/>
			<path fill-rule="evenodd" clip-rule="evenodd" fill="#8FD5DD" d="M967.819,311.379H235.955
				c-12.975,0,110.882,117.167,348.73,261.451c187.431,113.707,385.699,163.519,384.66,158.652V312.818
				C969.345,312.038,968.665,311.379,967.819,311.379z"/>
		</g>
	</g>
	<g>
		<path fill-rule="evenodd" clip-rule="evenodd" fill="#8FD5DD" d="M542.85,294.4c0-5.481,4.441-9.931,9.931-9.931
			c5.477,0,9.927,4.45,9.927,9.931c0,5.473-4.45,9.927-9.927,9.927C547.291,304.327,542.85,299.872,542.85,294.4z"/>
		<path fill-rule="evenodd" clip-rule="evenodd" fill="#0C050D" d="M568.749,294.173c0-3.089,2.516-5.609,5.609-5.609
			c3.101,0,5.617,2.52,5.617,5.609c0,3.109-2.516,5.621-5.617,5.621C571.265,299.794,568.749,297.282,568.749,294.173z"/>
		<path fill-rule="evenodd" clip-rule="evenodd" fill="#0C050D" d="M588.356,296.75v-5.114c0-1.807,1.472-3.279,3.278-3.279h61.755
			c1.81,0,3.283,1.472,3.283,3.279v5.114c0,1.798-1.472,3.27-3.283,3.27h-61.755C589.828,300.021,588.356,298.548,588.356,296.75z"
			/>
	</g>
</g>
</svg>
