<?xml version="1.0" encoding="utf-8"?>
<!-- Generator: Adobe Illustrator 19.0.0, SVG Export Plug-In . SVG Version: 6.00 Build 0)  -->
<svg version="1.1" id="Laag_1" xmlns="http://www.w3.org/2000/svg" xmlns:xlink="http://www.w3.org/1999/xlink" x="0px" y="0px"
	 viewBox="0 0 1086 650" style="enable-background:new 0 0 1086 650;" xml:space="preserve">
<style type="text/css">
	.st0{fill:#5B5B5E;}
	.st1{clip-path:url(#XMLID_197_);}
	.st2{fill:#707172;}
	.st3{fill:#BBBDBC;}
	.st4{fill:#656568;}
	.st5{opacity:0.15;fill:#120C13;enable-background:new    ;}
	.st6{fill:#716F71;}
	.st7{fill:#2E2A30;}
	.st8{fill:#FBFBFB;}
	.st9{fill:#189852;}
	.st10{fill:#EFDD35;}
	.st11{fill:#959A9B;}
	.st12{fill:#54C5D1;}
	.st13{fill:#8FD5DD;}
	.st14{fill:#0C050D;}
</style>
<g id="XMLID_2_">
	<g id="XMLID_7_">
		<path id="XMLID_196_" class="st0" d="M967.3,492.3c0,17.9-14.5,32.3-32.4,32.3H156c-17.9,0-32.4-14.5-32.4-32.3V31.9
			c0-17.9,14.5-32.4,32.4-32.4h778.9c17.9,0,32.4,14.5,32.4,32.4V492.3z"/>
		<path id="XMLID_195_" class="st0" d="M961,492.6c0,17.7-14.3,32-32,32H161.8c-17.7,0-32-14.3-32-32V37.7c0-17.7,14.3-32,32-32
			h767.2c17.7,0,32,14.3,32,32V492.6z"/>
		<g id="XMLID_190_">
			<g id="XMLID_191_">
				<defs>
					<path id="XMLID_194_" d="M961,492.6c0,17.7-14.3,32-32,32H161.8c-17.7,0-32-14.3-32-32V37.7c0-17.7,14.3-32,32-32h767.2
						c17.7,0,32,14.3,32,32V492.6z"/>
				</defs>
				<clipPath id="XMLID_197_">
					<use xlink:href="#XMLID_194_"  style="overflow:visible;"/>
				</clipPath>
				<g id="XMLID_192_" class="st1">
					<path id="XMLID_193_" class="st2" d="M551.3,347.2c277.7,0,504.2-96.1,504.2-213.9S829-80.6,551.3-80.6
						C273.5-80.6,47,15.5,47,133.3S273.5,347.2,551.3,347.2z"/>
				</g>
			</g>
		</g>
		<polygon id="XMLID_189_" class="st3" points="130.6,496.8 0.9,628 1085.1,626.8 960.3,496 		"/>
		<path id="XMLID_188_" class="st4" d="M1087.6,626.8c0,13.1-12.3,23.6-27.5,23.6H28.3c-15.2,0-27.5-10.6-27.5-23.6H1087.6z"/>
		<polygon id="XMLID_187_" class="st5" points="227.5,519.7 205.1,519.7 215.2,505.4 236.9,505.4 		"/>
		<polygon id="XMLID_186_" class="st5" points="244.8,537.7 192.2,537.7 202.4,523.4 253.3,523.4 		"/>
		<polygon id="XMLID_185_" class="st5" points="234.3,557.4 179.4,557.4 189.6,543.1 242.7,543.1 		"/>
		<polygon id="XMLID_184_" class="st5" points="254.4,519.7 232,519.7 241.2,505.4 262.9,505.4 		"/>
		<polygon id="XMLID_183_" class="st5" points="281.3,519.7 258.9,519.7 267.3,505.4 289,505.4 		"/>
		<polygon id="XMLID_182_" class="st5" points="308.2,519.7 285.8,519.7 293.3,505.4 315,505.4 		"/>
		<polygon id="XMLID_181_" class="st5" points="335.1,519.7 312.7,519.7 319.3,505.4 341,505.4 		"/>
		<polygon id="XMLID_180_" class="st5" points="362,519.7 339.6,519.7 345.4,505.4 367,505.4 		"/>
		<polygon id="XMLID_179_" class="st5" points="388.9,519.7 366.5,519.7 371.4,505.4 393.1,505.4 		"/>
		<polygon id="XMLID_178_" class="st5" points="415.9,519.7 393.4,519.7 397.4,505.4 419.1,505.4 		"/>
		<polygon id="XMLID_177_" class="st5" points="442.8,519.7 420.3,519.7 423.4,505.4 445.1,505.4 		"/>
		<polygon id="XMLID_176_" class="st5" points="469.7,519.7 447.3,519.7 449.5,505.4 471.2,505.4 		"/>
		<polygon id="XMLID_175_" class="st5" points="496.6,519.7 474.2,519.7 475.5,505.4 497.2,505.4 		"/>
		<polygon id="XMLID_174_" class="st5" points="523.5,519.7 501.1,519.7 501.5,505.4 523.2,505.4 		"/>
		<polygon id="XMLID_173_" class="st5" points="550.4,519.7 528,519.7 527.6,505.4 549.2,505.4 		"/>
		<polygon id="XMLID_172_" class="st5" points="577.3,519.7 554.9,519.7 553.6,505.4 575.3,505.4 		"/>
		<polygon id="XMLID_171_" class="st5" points="604.2,519.7 581.8,519.7 579.6,505.4 601.3,505.4 		"/>
		<polygon id="XMLID_170_" class="st5" points="631.2,519.7 608.7,519.7 605.6,505.4 627.3,505.4 		"/>
		<polygon id="XMLID_169_" class="st5" points="658.1,519.7 635.6,519.7 631.7,505.4 653.4,505.4 		"/>
		<polygon id="XMLID_168_" class="st5" points="685,519.7 662.6,519.7 657.7,505.4 679.4,505.4 		"/>
		<polygon id="XMLID_167_" class="st5" points="711.9,519.7 689.5,519.7 683.7,505.4 705.4,505.4 		"/>
		<polygon id="XMLID_166_" class="st5" points="738.8,519.7 716.4,519.7 709.7,505.4 731.4,505.4 		"/>
		<polygon id="XMLID_165_" class="st5" points="765.7,519.7 743.3,519.7 735.8,505.4 757.5,505.4 		"/>
		<polygon id="XMLID_164_" class="st5" points="792.6,519.7 770.2,519.7 761.8,505.4 783.5,505.4 		"/>
		<polygon id="XMLID_163_" class="st5" points="819.5,519.7 797.1,519.7 787.8,505.4 809.5,505.4 		"/>
		<polygon id="XMLID_162_" class="st5" points="846.4,519.7 824,519.7 813.9,505.4 835.5,505.4 		"/>
		<polygon id="XMLID_161_" class="st5" points="873.4,519.7 850.9,519.7 839.9,505.4 861.6,505.4 		"/>
		<polygon id="XMLID_160_" class="st5" points="190.5,575.8 165.2,575.8 175.3,561.5 199.9,561.5 		"/>
		<polygon id="XMLID_159_" class="st5" points="220.9,575.8 195.5,575.8 204.8,561.5 229.4,561.5 		"/>
		<polygon id="XMLID_158_" class="st5" points="251.2,575.8 225.9,575.8 234.3,561.5 258.9,561.5 		"/>
		<polygon id="XMLID_157_" class="st5" points="281.6,575.8 256.3,575.8 263.8,561.5 288.4,561.5 		"/>
		<polygon id="XMLID_156_" class="st5" points="312,575.8 286.7,575.8 293.3,561.5 317.9,561.5 		"/>
		<polygon id="XMLID_155_" class="st5" points="342.4,575.8 317.1,575.8 322.8,561.5 347.4,561.5 		"/>
		<polygon id="XMLID_154_" class="st5" points="736.1,575.8 348.7,575.8 353.5,561.5 729.6,561.5 		"/>
		<polygon id="XMLID_153_" class="st5" points="767.7,575.8 742.4,575.8 735.8,561.5 760.4,561.5 		"/>
		<polygon id="XMLID_152_" class="st5" points="798.1,575.8 772.8,575.8 765.3,561.5 789.9,561.5 		"/>
		<polygon id="XMLID_151_" class="st5" points="828.5,575.8 803.2,575.8 794.8,561.5 819.4,561.5 		"/>
		<polygon id="XMLID_150_" class="st5" points="858.9,575.8 833.6,575.8 824.3,561.5 848.9,561.5 		"/>
		<polygon id="XMLID_149_" class="st5" points="889.3,575.8 863.9,575.8 853.8,561.5 878.4,561.5 		"/>
		<polygon id="XMLID_148_" class="st5" points="919.6,575.8 894.3,575.8 883.3,561.5 907.9,561.5 		"/>
		<polygon id="XMLID_147_" class="st5" points="271.7,537.7 248.3,537.7 256.7,523.4 279.3,523.4 		"/>
		<polygon id="XMLID_146_" class="st5" points="299.7,537.7 276.3,537.7 283.8,523.4 306.4,523.4 		"/>
		<polygon id="XMLID_145_" class="st5" points="327.7,537.7 304.4,537.7 311,523.4 333.6,523.4 		"/>
		<polygon id="XMLID_144_" class="st5" points="355.7,537.7 332.4,537.7 338.1,523.4 360.7,523.4 		"/>
		<polygon id="XMLID_143_" class="st5" points="383.8,537.7 360.4,537.7 365.3,523.4 387.9,523.4 		"/>
		<polygon id="XMLID_142_" class="st5" points="411.8,537.7 388.4,537.7 392.4,523.4 415,523.4 		"/>
		<polygon id="XMLID_141_" class="st5" points="439.8,537.7 416.4,537.7 419.5,523.4 442.2,523.4 		"/>
		<polygon id="XMLID_140_" class="st5" points="467.8,537.7 444.5,537.7 446.7,523.4 469.3,523.4 		"/>
		<polygon id="XMLID_139_" class="st5" points="495.9,537.7 472.5,537.7 473.8,523.4 496.4,523.4 		"/>
		<polygon id="XMLID_138_" class="st5" points="523.9,537.7 500.5,537.7 501,523.4 523.6,523.4 		"/>
		<polygon id="XMLID_137_" class="st5" points="551.9,537.7 528.6,537.7 528.1,523.4 550.7,523.4 		"/>
		<polygon id="XMLID_136_" class="st5" points="579.9,537.7 556.6,537.7 555.3,523.4 577.9,523.4 		"/>
		<polygon id="XMLID_135_" class="st5" points="608,537.7 584.6,537.7 582.4,523.4 605,523.4 		"/>
		<polygon id="XMLID_134_" class="st5" points="636,537.7 612.6,537.7 609.5,523.4 632.2,523.4 		"/>
		<polygon id="XMLID_133_" class="st5" points="664,537.7 640.7,537.7 636.7,523.4 659.3,523.4 		"/>
		<polygon id="XMLID_132_" class="st5" points="692,537.7 668.7,537.7 663.8,523.4 686.4,523.4 		"/>
		<polygon id="XMLID_131_" class="st5" points="720.1,537.7 696.7,537.7 691,523.4 713.6,523.4 		"/>
		<polygon id="XMLID_130_" class="st5" points="748.1,537.7 724.7,537.7 718.1,523.4 740.7,523.4 		"/>
		<polygon id="XMLID_129_" class="st5" points="776.1,537.7 752.8,537.7 745.3,523.4 767.9,523.4 		"/>
		<polygon id="XMLID_128_" class="st5" points="804.1,537.7 780.8,537.7 772.4,523.4 795,523.4 		"/>
		<polygon id="XMLID_127_" class="st5" points="832.2,537.7 808.8,537.7 799.5,523.4 822.2,523.4 		"/>
		<polygon id="XMLID_126_" class="st5" points="860.2,537.7 836.9,537.7 826.7,523.4 849.3,523.4 		"/>
		<polygon id="XMLID_125_" class="st5" points="903.7,556.4 879.3,556.4 853.8,523.4 876.4,523.4 		"/>
		<polygon id="XMLID_124_" class="st5" points="261.1,557.4 236.7,557.4 245.1,543.1 268.7,543.1 		"/>
		<polygon id="XMLID_123_" class="st5" points="290.3,557.4 266,557.4 273.5,543.1 297.1,543.1 		"/>
		<polygon id="XMLID_122_" class="st5" points="319.6,557.4 295.2,557.4 301.8,543.1 325.5,543.1 		"/>
		<polygon id="XMLID_121_" class="st5" points="348.8,557.4 324.4,557.4 330.2,543.1 353.8,543.1 		"/>
		<polygon id="XMLID_120_" class="st5" points="378.1,557.4 353.7,557.4 358.5,543.1 382.2,543.1 		"/>
		<polygon id="XMLID_119_" class="st5" points="407.3,557.4 382.9,557.4 386.9,543.1 410.5,543.1 		"/>
		<polygon id="XMLID_118_" class="st5" points="436.6,557.4 412.2,557.4 415.3,543.1 438.9,543.1 		"/>
		<polygon id="XMLID_117_" class="st5" points="465.8,557.4 441.4,557.4 443.6,543.1 467.3,543.1 		"/>
		<polygon id="XMLID_116_" class="st5" points="495,557.4 470.7,557.4 472,543.1 495.6,543.1 		"/>
		<polygon id="XMLID_115_" class="st5" points="524.3,557.4 499.9,557.4 500.4,543.1 524,543.1 		"/>
		<polygon id="XMLID_114_" class="st5" points="553.5,557.4 529.2,557.4 528.7,543.1 552.4,543.1 		"/>
		<polygon id="XMLID_113_" class="st5" points="582.8,557.4 558.4,557.4 557.1,543.1 580.7,543.1 		"/>
		<polygon id="XMLID_112_" class="st5" points="612,557.4 587.7,557.4 585.4,543.1 609.1,543.1 		"/>
		<polygon id="XMLID_111_" class="st5" points="641.3,557.4 616.9,557.4 613.8,543.1 637.4,543.1 		"/>
		<polygon id="XMLID_110_" class="st5" points="670.5,557.4 646.2,557.4 642.2,543.1 665.8,543.1 		"/>
		<polygon id="XMLID_109_" class="st5" points="699.8,557.4 675.4,557.4 670.5,543.1 694.2,543.1 		"/>
		<polygon id="XMLID_108_" class="st5" points="729,557.4 704.6,557.4 698.9,543.1 722.5,543.1 		"/>
		<polygon id="XMLID_107_" class="st5" points="758.3,557.4 733.9,557.4 727.3,543.1 750.9,543.1 		"/>
		<polygon id="XMLID_106_" class="st5" points="787.5,557.4 763.1,557.4 755.6,543.1 779.3,543.1 		"/>
		<polygon id="XMLID_105_" class="st5" points="816.8,557.4 792.4,557.4 784,543.1 807.6,543.1 		"/>
		<polygon id="XMLID_104_" class="st5" points="846,557.4 821.6,557.4 812.4,543.1 836,543.1 		"/>
		<polygon id="XMLID_103_" class="st5" points="875.3,557.4 850.9,557.4 840.7,543.1 864.3,543.1 		"/>
		<polygon id="XMLID_102_" class="st6" points="227.5,518.6 205.1,518.6 215.2,504.3 236.9,504.3 		"/>
		<polygon id="XMLID_101_" class="st6" points="244.8,536.6 192.2,536.6 202.4,522.4 253.3,522.4 		"/>
		<polygon id="XMLID_100_" class="st6" points="234.3,556.4 179.4,556.4 189.6,542.1 242.7,542.1 		"/>
		<polygon id="XMLID_99_" class="st6" points="254.4,518.6 232,518.6 241.2,504.3 262.9,504.3 		"/>
		<polygon id="XMLID_98_" class="st6" points="281.3,518.6 258.9,518.6 267.3,504.3 289,504.3 		"/>
		<polygon id="XMLID_97_" class="st6" points="308.2,518.6 285.8,518.6 293.3,504.3 315,504.3 		"/>
		<polygon id="XMLID_96_" class="st6" points="335.1,518.6 312.7,518.6 319.3,504.3 341,504.3 		"/>
		<polygon id="XMLID_95_" class="st6" points="362,518.6 339.6,518.6 345.4,504.3 367,504.3 		"/>
		<polygon id="XMLID_94_" class="st6" points="388.9,518.6 366.5,518.6 371.4,504.3 393.1,504.3 		"/>
		<polygon id="XMLID_93_" class="st6" points="415.9,518.6 393.4,518.6 397.4,504.3 419.1,504.3 		"/>
		<polygon id="XMLID_92_" class="st6" points="442.8,518.6 420.3,518.6 423.4,504.3 445.1,504.3 		"/>
		<polygon id="XMLID_91_" class="st6" points="469.7,518.6 447.3,518.6 449.5,504.3 471.2,504.3 		"/>
		<polygon id="XMLID_90_" class="st6" points="496.6,518.6 474.2,518.6 475.5,504.3 497.2,504.3 		"/>
		<polygon id="XMLID_89_" class="st6" points="523.5,518.6 501.1,518.6 501.5,504.3 523.2,504.3 		"/>
		<polygon id="XMLID_88_" class="st6" points="550.4,518.6 528,518.6 527.6,504.3 549.2,504.3 		"/>
		<polygon id="XMLID_87_" class="st6" points="577.3,518.6 554.9,518.6 553.6,504.3 575.3,504.3 		"/>
		<polygon id="XMLID_86_" class="st6" points="604.2,518.6 581.8,518.6 579.6,504.3 601.3,504.3 		"/>
		<polygon id="XMLID_85_" class="st6" points="631.2,518.6 608.7,518.6 605.6,504.3 627.3,504.3 		"/>
		<polygon id="XMLID_84_" class="st6" points="658.1,518.6 635.6,518.6 631.7,504.3 653.4,504.3 		"/>
		<polygon id="XMLID_83_" class="st6" points="685,518.6 662.6,518.6 657.7,504.3 679.4,504.3 		"/>
		<polygon id="XMLID_82_" class="st6" points="711.9,518.6 689.5,518.6 683.7,504.3 705.4,504.3 		"/>
		<polygon id="XMLID_81_" class="st6" points="738.8,518.6 716.4,518.6 709.7,504.3 731.4,504.3 		"/>
		<polygon id="XMLID_80_" class="st6" points="765.7,518.6 743.3,518.6 735.8,504.3 757.5,504.3 		"/>
		<polygon id="XMLID_79_" class="st6" points="792.6,518.6 770.2,518.6 761.8,504.3 783.5,504.3 		"/>
		<polygon id="XMLID_78_" class="st6" points="819.5,518.6 797.1,518.6 787.8,504.3 809.5,504.3 		"/>
		<polygon id="XMLID_77_" class="st6" points="846.4,518.6 824,518.6 813.9,504.3 835.5,504.3 		"/>
		<polygon id="XMLID_76_" class="st6" points="873.4,518.6 850.9,518.6 839.9,504.3 861.6,504.3 		"/>
		<polygon id="XMLID_75_" class="st6" points="190.5,574.7 165.2,574.7 175.3,560.4 199.9,560.4 		"/>
		<polygon id="XMLID_74_" class="st6" points="220.9,574.7 195.5,574.7 204.8,560.4 229.4,560.4 		"/>
		<polygon id="XMLID_73_" class="st6" points="251.2,574.7 225.9,574.7 234.3,560.4 258.9,560.4 		"/>
		<polygon id="XMLID_72_" class="st6" points="281.6,574.7 256.3,574.7 263.8,560.4 288.4,560.4 		"/>
		<polygon id="XMLID_71_" class="st6" points="312,574.7 286.7,574.7 293.3,560.4 317.9,560.4 		"/>
		<polygon id="XMLID_70_" class="st6" points="342.4,574.7 317.1,574.7 322.8,560.4 347.4,560.4 		"/>
		<polygon id="XMLID_69_" class="st6" points="736.1,574.7 348.7,574.7 353.5,560.4 729.6,560.4 		"/>
		<polygon id="XMLID_68_" class="st6" points="767.7,574.7 742.4,574.7 735.8,560.4 760.4,560.4 		"/>
		<polygon id="XMLID_67_" class="st6" points="798.1,574.7 772.8,574.7 765.3,560.4 789.9,560.4 		"/>
		<polygon id="XMLID_66_" class="st6" points="828.5,574.7 803.2,574.7 794.8,560.4 819.4,560.4 		"/>
		<polygon id="XMLID_65_" class="st6" points="858.9,574.7 833.6,574.7 824.3,560.4 848.9,560.4 		"/>
		<polygon id="XMLID_64_" class="st6" points="889.3,574.7 863.9,574.7 853.8,560.4 878.4,560.4 		"/>
		<polygon id="XMLID_63_" class="st6" points="919.6,574.7 894.3,574.7 883.3,560.4 907.9,560.4 		"/>
		<polygon id="XMLID_62_" class="st6" points="271.7,536.6 248.3,536.6 256.7,522.4 279.3,522.4 		"/>
		<polygon id="XMLID_61_" class="st6" points="299.7,536.6 276.3,536.6 283.8,522.4 306.4,522.4 		"/>
		<polygon id="XMLID_60_" class="st6" points="327.7,536.6 304.4,536.6 311,522.4 333.6,522.4 		"/>
		<polygon id="XMLID_59_" class="st6" points="355.7,536.6 332.4,536.6 338.1,522.4 360.7,522.4 		"/>
		<polygon id="XMLID_58_" class="st6" points="383.8,536.6 360.4,536.6 365.3,522.4 387.9,522.4 		"/>
		<polygon id="XMLID_57_" class="st6" points="411.8,536.6 388.4,536.6 392.4,522.4 415,522.4 		"/>
		<polygon id="XMLID_56_" class="st6" points="439.8,536.6 416.4,536.6 419.5,522.4 442.2,522.4 		"/>
		<polygon id="XMLID_55_" class="st6" points="467.8,536.6 444.5,536.6 446.7,522.4 469.3,522.4 		"/>
		<polygon id="XMLID_54_" class="st6" points="495.9,536.6 472.5,536.6 473.8,522.4 496.4,522.4 		"/>
		<polygon id="XMLID_53_" class="st6" points="523.9,536.6 500.5,536.6 501,522.4 523.6,522.4 		"/>
		<polygon id="XMLID_52_" class="st6" points="551.9,536.6 528.6,536.6 528.1,522.4 550.7,522.4 		"/>
		<polygon id="XMLID_51_" class="st6" points="579.9,536.6 556.6,536.6 555.3,522.4 577.9,522.4 		"/>
		<polygon id="XMLID_50_" class="st6" points="608,536.6 584.6,536.6 582.4,522.4 605,522.4 		"/>
		<polygon id="XMLID_49_" class="st6" points="636,536.6 612.6,536.6 609.5,522.4 632.2,522.4 		"/>
		<polygon id="XMLID_48_" class="st6" points="664,536.6 640.7,536.6 636.7,522.4 659.3,522.4 		"/>
		<polygon id="XMLID_47_" class="st6" points="692,536.6 668.7,536.6 663.8,522.4 686.4,522.4 		"/>
		<polygon id="XMLID_46_" class="st6" points="720.1,536.6 696.7,536.6 691,522.4 713.6,522.4 		"/>
		<polygon id="XMLID_45_" class="st6" points="748.1,536.6 724.7,536.6 718.1,522.4 740.7,522.4 		"/>
		<polygon id="XMLID_44_" class="st6" points="776.1,536.6 752.8,536.6 745.3,522.4 767.9,522.4 		"/>
		<polygon id="XMLID_43_" class="st6" points="804.1,536.6 780.8,536.6 772.4,522.4 795,522.4 		"/>
		<polygon id="XMLID_42_" class="st6" points="832.2,536.6 808.8,536.6 799.5,522.4 822.2,522.4 		"/>
		<polygon id="XMLID_41_" class="st6" points="860.2,536.6 836.9,536.6 826.7,522.4 849.3,522.4 		"/>
		<polygon id="XMLID_40_" class="st6" points="903.7,555.3 879.3,555.3 853.8,522.4 876.4,522.4 		"/>
		<polygon id="XMLID_39_" class="st6" points="261.1,556.4 236.7,556.4 245.1,542.1 268.7,542.1 		"/>
		<polygon id="XMLID_38_" class="st6" points="290.3,556.4 266,556.4 273.5,542.1 297.1,542.1 		"/>
		<polygon id="XMLID_37_" class="st6" points="319.6,556.4 295.2,556.4 301.8,542.1 325.5,542.1 		"/>
		<polygon id="XMLID_36_" class="st6" points="348.8,556.4 324.4,556.4 330.2,542.1 353.8,542.1 		"/>
		<polygon id="XMLID_35_" class="st6" points="378.1,556.4 353.7,556.4 358.5,542.1 382.2,542.1 		"/>
		<polygon id="XMLID_34_" class="st6" points="407.3,556.4 382.9,556.4 386.9,542.1 410.5,542.1 		"/>
		<polygon id="XMLID_33_" class="st6" points="436.6,556.4 412.2,556.4 415.3,542.1 438.9,542.1 		"/>
		<polygon id="XMLID_32_" class="st6" points="465.8,556.4 441.4,556.4 443.6,542.1 467.3,542.1 		"/>
		<polygon id="XMLID_31_" class="st6" points="495,556.4 470.7,556.4 472,542.1 495.6,542.1 		"/>
		<polygon id="XMLID_30_" class="st6" points="524.3,556.4 499.9,556.4 500.4,542.1 524,542.1 		"/>
		<polygon id="XMLID_29_" class="st6" points="553.5,556.4 529.2,556.4 528.7,542.1 552.4,542.1 		"/>
		<polygon id="XMLID_28_" class="st6" points="582.8,556.4 558.4,556.4 557.1,542.1 580.7,542.1 		"/>
		<polygon id="XMLID_27_" class="st6" points="612,556.4 587.7,556.4 585.4,542.1 609.1,542.1 		"/>
		<polygon id="XMLID_26_" class="st6" points="641.3,556.4 616.9,556.4 613.8,542.1 637.4,542.1 		"/>
		<polygon id="XMLID_25_" class="st6" points="670.5,556.4 646.2,556.4 642.2,542.1 665.8,542.1 		"/>
		<polygon id="XMLID_24_" class="st6" points="699.8,556.4 675.4,556.4 670.5,542.1 694.2,542.1 		"/>
		<polygon id="XMLID_23_" class="st6" points="729,556.4 704.6,556.4 698.9,542.1 722.5,542.1 		"/>
		<polygon id="XMLID_22_" class="st6" points="758.3,556.4 733.9,556.4 727.3,542.1 750.9,542.1 		"/>
		<polygon id="XMLID_21_" class="st6" points="787.5,556.4 763.1,556.4 755.6,542.1 779.3,542.1 		"/>
		<polygon id="XMLID_20_" class="st6" points="816.8,556.4 792.4,556.4 784,542.1 807.6,542.1 		"/>
		<polygon id="XMLID_19_" class="st6" points="846,556.4 821.6,556.4 812.4,542.1 836,542.1 		"/>
		<polygon id="XMLID_18_" class="st6" points="875.3,556.4 850.9,556.4 840.7,542.1 864.3,542.1 		"/>
		<path id="XMLID_17_" class="st7" d="M60.6,645.1c2.8,0,5-2,5-4.5c0-2.5-2.2-4.5-5-4.5c-2.8,0-5,2-5,4.5
			C55.6,643.1,57.9,645.1,60.6,645.1z"/>
		<path id="XMLID_16_" class="st8" d="M60.6,643.6c2.8,0,5-2,5-4.5c0-2.5-2.2-4.5-5-4.5c-2.8,0-5,2-5,4.5
			C55.6,641.6,57.9,643.6,60.6,643.6z"/>
		<path id="XMLID_15_" class="st7" d="M96.4,645.4c2.8,0,5-2,5-4.5c0-2.5-2.3-4.5-5-4.5s-5,2-5,4.5
			C91.4,643.4,93.6,645.4,96.4,645.4z"/>
		<path id="XMLID_14_" class="st9" d="M96.4,644c2.8,0,5-2,5-4.5s-2.3-4.5-5-4.5s-5,2-5,4.5C91.4,642,93.6,644,96.4,644z"/>
		<path id="XMLID_13_" class="st7" d="M134.7,645.4c2.8,0,5-2,5-4.5c0-2.5-2.2-4.5-5-4.5c-2.8,0-5,2-5,4.5
			C129.7,643.4,131.9,645.4,134.7,645.4z"/>
		<path id="XMLID_12_" class="st10" d="M134.7,644c2.8,0,5-2,5-4.5s-2.2-4.5-5-4.5c-2.8,0-5,2-5,4.5C129.7,642,131.9,644,134.7,644z
			"/>
		<path id="XMLID_11_" class="st11" d="M449,580.7h175.6c9.9,0,14.1,24.3,17.2,32.5c1.6,4.4-3.8,8.6-8.5,8.6H439.9
			c-4.7,0-10.7-4.4-8.5-8.6C434.7,607.2,442.2,580.7,449,580.7z"/>
		<g id="XMLID_8_">
			<path id="XMLID_10_" class="st12" d="M912.1,36.4h-732c-0.8,0-1.4,0.7-1.4,1.4v418.7c0,0.8,0.7,1.4,1.4,1.4h732
				c0.8,0,1.4-0.7,1.4-1.4V37.8C913.6,37,912.9,36.4,912.1,36.4z"/>
			<path id="XMLID_9_" class="st13" d="M912,36.4H180.2c-13,0,110.9,117.2,348.7,261.5c187.4,113.7,385.7,163.5,384.7,158.7V37.8
				C913.6,37,912.9,36.4,912,36.4z"/>
		</g>
	</g>
	<g id="XMLID_3_">
		<path id="XMLID_6_" class="st13" d="M487.1,19.4c0-5.5,4.4-9.9,9.9-9.9c5.5,0,9.9,4.5,9.9,9.9c0,5.5-4.5,9.9-9.9,9.9
			C491.5,29.3,487.1,24.9,487.1,19.4z"/>
		<path id="XMLID_5_" class="st14" d="M513,19.2c0-3.1,2.5-5.6,5.6-5.6c3.1,0,5.6,2.5,5.6,5.6c0,3.1-2.5,5.6-5.6,5.6
			C515.5,24.8,513,22.3,513,19.2z"/>
		<path id="XMLID_4_" class="st14" d="M532.6,21.8v-5.1c0-1.8,1.5-3.3,3.3-3.3h61.8c1.8,0,3.3,1.5,3.3,3.3v5.1
			c0,1.8-1.5,3.3-3.3,3.3h-61.8C534.1,25,532.6,23.5,532.6,21.8z"/>
	</g>
</g>
</svg>
